<?xml version="1.0" encoding="utf-8"?>
<!-- Generator: Adobe Illustrator 16.0.4, SVG Export Plug-In . SVG Version: 6.00 Build 0)  -->
<!DOCTYPE svg PUBLIC "-//W3C//DTD SVG 1.1//EN" "http://www.w3.org/Graphics/SVG/1.1/DTD/svg11.dtd">
<svg version="1.1" id="Layer_1" xmlns="http://www.w3.org/2000/svg" xmlns:xlink="http://www.w3.org/1999/xlink" x="0px" y="0px"
	 width="150px" height="150px" viewBox="0 0 150 150" enable-background="new 0 0 150 150" xml:space="preserve">
<g>
	<path fill="#D8C3A5" d="M150.917,75.145l-6.429-6.45V46.429l-15.191-15.243V21.064h-10.088L104.016,5.819H81.822l-6.428-6.45
		l-6.428,6.45H46.771L31.577,21.064H21.491v10.12L6.297,46.429v22.269l-6.425,6.447l6.425,6.446v22.269l15.194,15.245v10.12h10.086
		l15.047,15.098l0.146,0.147h22.195l6.428,6.449l6.428-6.449h22.193l15.193-15.245h10.088v-10.122l15.046-15.098l0.146-0.146V81.595
		L150.917,75.145z M149.505,75.145l-5.017,5.033V70.111L149.505,75.145z M108.218,127.225H99.01l28.287-28.381v9.237
		L108.218,127.225z M127.297,109.498v10.193l-7.507,7.533h-10.16L127.297,109.498z M61.198,135.259l-6.014-6.034h40.422
		l-6.015,6.034H61.198z M88.595,136.259l-7.188,7.211H69.381l-7.187-7.211H88.595z M23.491,108.082v-9.239l28.288,28.382h-9.209
		L23.491,108.082z M41.158,127.225H30.996l-7.505-7.53v-10.195L41.158,127.225z M15.481,90.806l6.01,6.03v9.239l-6.01-6.03V90.806z
		 M15.481,60.9l6.01-6.03v40.549l-6.01-6.03V60.9z M14.481,88.386l-7.184-7.208V69.111l7.184-7.208V88.386z M42.567,23.064h9.212
		L23.491,51.446v-9.242L42.567,23.064z M23.491,40.788V30.594l7.504-7.53h10.16L23.491,40.788z M89.588,15.028l6.017,6.037h-40.42
		l6.017-6.037H89.588z M62.197,14.028l7.185-7.208h12.025l7.185,7.208H62.197z M127.297,42.205v9.24L99.011,23.064h9.209
		L127.297,42.205z M109.632,23.064h10.158l7.507,7.532v10.192L109.632,23.064z M135.307,59.482l-6.01-6.03v-9.24l6.01,6.03V59.482z
		 M127.297,52.862v44.564l-29.698,29.798H53.19L23.491,97.426V52.863l29.7-29.799h44.408L127.297,52.862z M97.018,21.064
		l-6.017-6.037h9.209l6.017,6.037H97.018z M53.772,21.064h-9.211l6.016-6.037h9.212L53.772,21.064z M21.491,53.453l-6.01,6.03
		v-9.242l6.01-6.031V53.453z M53.772,129.225l6.014,6.034h-9.21l-6.014-6.034H53.772z M97.017,129.225h9.207l-6.014,6.034h-9.207
		L97.017,129.225z M129.297,96.837l6.01-6.03v9.238l-6.01,6.03V96.837z M129.297,95.42V54.869l6.01,6.03v28.492L129.297,95.42z
		 M136.307,61.902l7.182,7.206v12.074l-7.182,7.205V61.902z M143.488,46.842v20.849l-7.182-7.206V49.829l-7.01-7.033V32.603
		L143.488,46.842z M127.297,23.064v6.115l-6.095-6.115H127.297z M103.6,6.819l14.197,14.245h-10.158l-7.013-7.037H90.004
		l-7.185-7.208H103.6z M75.395,0.787l5.016,5.033H70.378L75.395,0.787z M47.187,6.819H67.97l-7.185,7.208H50.162l-7.013,7.037
		H32.989L47.187,6.819z M23.491,23.064h6.093l-6.093,6.113V23.064z M7.297,46.842l14.194-14.242v10.194l-7.01,7.034v10.658
		l-7.184,7.208V46.842z M1.284,75.145l5.013-5.03v10.06L1.284,75.145z M7.297,103.445V82.595l7.184,7.207v10.657l7.01,7.033v10.195
		L7.297,103.445z M23.491,127.225v-6.113l6.093,6.113H23.491z M47.187,143.47L32.99,129.225h10.162l6.864,6.887l0.146,0.147h10.622
		l7.187,7.211H47.187z M75.395,149.503l-5.017-5.033h10.033L75.395,149.503z M103.6,143.47h-20.78l7.187-7.211h10.62l7.011-7.034
		h10.16L103.6,143.47z M127.297,127.225h-6.095l6.095-6.115V127.225z M143.488,103.445l-14.191,14.239v-10.192l6.864-6.888
		l0.146-0.146V89.804l7.182-7.206V103.445z"/>
	<path fill="#D8C3A5" d="M68.158,66.349c-0.595,1.653-1.76,4.695-3.494,9.125c-1.733,4.43-3.266,8.271-4.596,11.524
		c-2.679-7.191-4.745-12.734-6.198-16.628c-1.453-3.894-2.503-6.702-3.151-8.424c-0.053-0.158-0.114-0.369-0.184-0.632
		c-0.07-0.264-0.105-0.492-0.105-0.685c0-0.492,0.451-0.834,1.353-1.028s2.01-0.325,3.323-0.396v-1.871H39.683v1.871
		c0.49,0.036,1.024,0.128,1.602,0.277c0.578,0.149,1.103,0.374,1.576,0.672c0.578,0.369,1.042,0.76,1.392,1.173
		c0.35,0.413,0.63,0.892,0.841,1.436c0.84,2.213,2.433,6.474,4.78,12.781c2.346,6.307,4.78,12.859,7.301,19.658h2.18
		c2.486-6.412,4.902-12.574,7.249-18.486c2.346-5.911,4.105-10.264,5.279-13.057c0.35-0.791,0.705-1.476,1.064-2.055
		c0.358-0.58,0.836-1.054,1.431-1.423c0.42-0.263,0.954-0.487,1.603-0.672c0.646-0.185,1.199-0.285,1.654-0.303v-1.871H63.772v1.871
		c0.613,0.053,1.217,0.123,1.812,0.211c0.595,0.088,1.182,0.22,1.76,0.396c0.595,0.193,1.072,0.426,1.431,0.698
		s0.539,0.61,0.539,1.015c0,0.386-0.048,0.887-0.145,1.502C69.073,63.643,68.736,64.75,68.158,66.349z"/>
	<path fill="#D8C3A5" d="M101.259,94.096c1.479-0.421,2.806-1.036,3.979-1.845c1.208-0.825,2.188-1.879,2.941-3.162
		c0.752-1.282,1.129-2.793,1.129-4.532c0-1.704-0.358-3.153-1.076-4.348c-0.719-1.194-1.62-2.161-2.706-2.899
		c-1.033-0.737-2.21-1.312-3.532-1.726c-1.322-0.412-2.518-0.681-3.585-0.804v-0.237c1.208-0.264,2.333-0.637,3.375-1.12
		c1.042-0.483,1.965-1.076,2.771-1.778c0.858-0.738,1.523-1.621,1.996-2.648c0.473-1.028,0.709-2.201,0.709-3.518
		c0-1.511-0.332-2.793-0.998-3.848c-0.665-1.054-1.515-1.888-2.547-2.503c-1.104-0.667-2.264-1.133-3.48-1.396
		s-2.491-0.395-3.821-0.395H79.21v1.871c0.438,0.036,0.98,0.123,1.629,0.264c0.647,0.141,1.234,0.343,1.76,0.606
		c0.595,0.281,0.993,0.65,1.194,1.107c0.201,0.457,0.303,0.984,0.303,1.581v26.879c0,0.65-0.114,1.182-0.342,1.595
		c-0.228,0.412-0.613,0.742-1.155,0.987c-0.351,0.158-0.929,0.295-1.733,0.409c-0.806,0.114-1.419,0.188-1.839,0.224v1.871h17.649
		C98.252,94.729,99.779,94.518,101.259,94.096z M89.689,59.496c0.576-0.017,1.288-0.04,2.136-0.066
		c0.847-0.026,1.551-0.04,2.109-0.04c2.41,0,4.175,0.585,5.293,1.756c1.117,1.17,1.677,2.785,1.677,4.844
		c0,1.232-0.127,2.296-0.38,3.194c-0.254,0.897-0.703,1.725-1.35,2.481c-0.629,0.74-1.454,1.294-2.476,1.664
		c-1.022,0.37-2.25,0.554-3.682,0.554h-3.328V59.496z M91.029,91.804c-0.894-0.562-1.34-1.396-1.34-2.504V76.124
		c0.385-0.018,0.963-0.039,1.733-0.065s1.716-0.04,2.837-0.04c2.748,0,4.862,0.712,6.343,2.135c1.479,1.423,2.219,3.241,2.219,5.455
		c0,2.969-0.691,5.218-2.074,6.746c-1.384,1.528-3.38,2.292-5.988,2.292C93.165,92.646,91.922,92.366,91.029,91.804z"/>
</g>
</svg>
